HIERARCHY
ROOT Hips
{
  OFFSET 57.8838 95.319 338.509
  CHANNELS 6 Xposition Yposition Zposition Zrotation Xrotation Yrotation
  JOINT LeftUpLeg
  {
    OFFSET 8.64259 1.95398 -2.38835
    CHANNELS 3 Zrotation Xrotation Yrotation
    JOINT LeftLeg
    {
      OFFSET 43.7702 0 0
      CHANNELS 3 Zrotation Xrotation Yrotation
      JOINT LeftFoot
      {
        OFFSET 40.6238 0 0
        CHANNELS 3 Zrotation Xrotation Yrotation
        JOINT LeftToeBase
        {
          OFFSET 12.7242 0 0
          CHANNELS 3 Zrotation Xrotation Yrotation
          End Site
          {
            OFFSET 0 0 0
          }
        }
      }
    }
  }
  JOINT RightUpLeg
  {
    OFFSET -8.2249 1.95398 -2.59336
    CHANNELS 3 Zrotation Xrotation Yrotation
    JOINT RightLeg
    {
      OFFSET 43.5653 0 0
      CHANNELS 3 Zrotation Xrotation Yrotation
      JOINT RightFoot
      {
        OFFSET 40.6238 0 0
        CHANNELS 3 Zrotation Xrotation Yrotation
        JOINT RightToeBase
        {
          OFFSET 12.7242 0 0
          CHANNELS 3 Zrotation Xrotation Yrotation
          End Site
          {
            OFFSET 0 0 0
          }
        }
      }
    }
  }
  JOINT Spine
  {
    OFFSET 0.165834 0.87714 6.61349
    CHANNELS 3 Zrotation Xrotation Yrotation
    JOINT Spine1
    {
      OFFSET 7.38963 1.71661e-005 0
      CHANNELS 3 Zrotation Xrotation Yrotation
      JOINT Spine2
      {
        OFFSET 11.9445 1.14441e-005 0
        CHANNELS 3 Zrotation Xrotation Yrotation
        JOINT Spine3
        {
          OFFSET 14.7254 4.19617e-005 0
          CHANNELS 3 Zrotation Xrotation Yrotation
          JOINT Spine4
          {
            OFFSET 10.9679 0 0
            CHANNELS 3 Zrotation Xrotation Yrotation
            JOINT RightShoulder
            {
              OFFSET 2.46616 -1.6653 3.69651
              CHANNELS 3 Zrotation Xrotation Yrotation
              JOINT RightArm
              {
                OFFSET 13.0012 0 0
                CHANNELS 3 Zrotation Xrotation Yrotation
                JOINT RightForeArm
                {
                  OFFSET 28.7848 1.62311e-005 0
                  CHANNELS 3 Zrotation Xrotation Yrotation
                  JOINT RightHand
                  {
                    OFFSET 26.5688 1.62095e-005 0
                    CHANNELS 3 Zrotation Xrotation Yrotation
                    End Site
                    {
                      OFFSET 0 0 0
                    }
                  }
                }
              }
            }
            JOINT LeftShoulder
            {
              OFFSET 2.38034 -1.29275 -3.7523
              CHANNELS 3 Zrotation Xrotation Yrotation
              JOINT LeftArm
              {
                OFFSET 16.3182 6.07031e-005 0
                CHANNELS 3 Zrotation Xrotation Yrotation
                JOINT LeftForeArm
                {
                  OFFSET 27.0901 0 0
                  CHANNELS 3 Zrotation Xrotation Yrotation
                  JOINT LeftHand
                  {
                    OFFSET 24.5451 1.51738e-005 0
                    CHANNELS 3 Zrotation Xrotation Yrotation
                    End Site
                    {
                      OFFSET 0 0 0
                    }
                  }
                }
              }
            }
            JOINT Neck
            {
              OFFSET 5.0226 -0.0266342 0
              CHANNELS 3 Zrotation Xrotation Yrotation
              JOINT Head
              {
                OFFSET 6.69364 2.86102e-005 0
                CHANNELS 3 Zrotation Xrotation Yrotation
                End Site
                {
                  OFFSET 0 0 0
                }
              }
            }
          }
        }
      }
    }
  }
}
MOTION
Frames:	7
Frame Time:	0.0416667
-222.482 94.9098 198.376 94.8568 45.7369 89.5586 -177.452 -1.49899 89.722 -7.71551 9.15485 1.66044 58.8835 3.17819 8.90869 36.2711 3.09201 3.77714 174.43 3.32442 93.364 -17.1102 1.62466 -1.21373 68.1733 0.290926 14.2142 26.1222 3.3955 1.46078 -0.200004 7.24739 -90.3807 12.3769 -0.578218 -0.694351 0.705924 -0.608212 -0.668239 -21.8282 -0.342804 -0.836018 -1.81554 -0.342814 -0.836024 96.6586 -49.5354 -90.6023 31.1893 -9.02309 -8.83865 1.66837 -9.45122 -17.5872 -20.8074 -1.55074 3.35935 -80.8401 -49.2401 92.4888 -40.5295 -19.6777 -16.0871 1.72579 70.6824 -2.04557 0.313301 -0.242334 -10.9454 11.4659 0.0498725 -1.85163 -14.901 -0.0170441 4.5038 
-222.535 94.8856 198.406 94.4704 45.8395 89.6898 -177.605 -1.108 89.5237 -7.84169 9.31342 1.61947 58.7906 3.14463 8.93904 36.5787 3.23334 4.04603 174.409 3.68413 93.2601 -17.1894 1.49233 -1.17925 68.1455 0.198234 13.8865 26.252 3.22306 1.4995 -0.221297 7.20938 -90.3874 12.4528 -0.623943 -0.702245 0.781783 -0.654241 -0.674117 -21.7524 -0.384049 -0.857293 -1.73975 -0.384056 -0.857302 96.2388 -49.5842 -91.2504 31.0609 -8.51409 -8.49494 1.44067 -8.85987 -17.8242 -18.1017 -0.983876 1.16159 -80.7429 -49.9335 92.6762 -39.7459 -19.6628 -16.121 3.1161 69.2521 -4.04405 -3.26234 -0.0784556 -10.1402 11.6479 0.025691 -1.37329 -15.1336 -0.160634 4.48212 
-222.57 94.8764 198.428 94.245 45.7591 89.6452 -177.742 -0.96773 89.3616 -7.81247 9.39508 1.5545 58.6911 3.1348 9.12597 36.5533 3.22618 4.27009 174.362 4.05932 93.0152 -17.535 1.47008 -1.19479 68.2776 0.272241 14.056 26.1974 3.27824 1.65877 -0.204071 7.18518 -90.3795 12.5013 -0.58602 -0.690332 0.830313 -0.615829 -0.663883 -21.7038 -0.351473 -0.83454 -1.69118 -0.351475 -0.834539 95.9785 -49.9269 -91.6151 30.691 -7.80018 -8.04256 1.19234 -9.00898 -18.2355 -18.0694 -0.983935 1.1364 -80.6873 -50.3133 92.7816 -39.2822 -19.5216 -15.9508 4.3462 65.7183 -6.11468 -7.03953 0.115391 -9.36209 11.5374 -0.190566 -1.34435 -14.6282 -0.395104 4.79449 
-222.601 94.8722 198.418 94.222 45.9253 89.6802 -177.824 -0.876764 89.3197 -7.88483 9.25013 1.6309 58.7106 3.15037 8.98872 36.7212 3.29756 4.07831 174.342 4.1027 93.0408 -17.6142 1.73819 -1.19512 68.3951 0.268593 14.3123 26.1973 3.31055 1.33193 -0.206858 7.15729 -90.3735 12.5571 -0.588894 -0.677727 0.886145 -0.61815 -0.651158 -21.6481 -0.357988 -0.823375 -1.63543 -0.35799 -0.823374 95.9356 -49.8872 -91.6865 30.784 -7.74808 -7.80767 1.27441 -8.92103 -18.1982 -18.2033 -1.04807 1.5016 -80.8125 -50.2213 92.5871 -39.2629 -19.6361 -16.1012 4.01701 66.577 -5.46717 -7.45873 0.149819 -9.7767 10.8649 -0.46967 -1.66984 -14.259 -0.608375 5.0064 
-222.558 94.8824 198.399 94.2478 45.9879 89.6651 -177.77 -0.905186 89.3444 -7.87337 9.19408 1.61158 58.7296 3.1533 8.92192 36.4881 3.19111 3.94267 174.306 4.04571 93.0419 -17.5608 1.76625 -1.16317 68.276 0.304827 14.0866 26.1732 3.30597 1.69528 -0.20364 7.14088 -90.3693 12.59 -0.580571 -0.670166 0.919037 -0.609497 -0.643976 -21.6152 -0.352326 -0.813657 -1.60255 -0.352312 -0.813664 96.1194 -49.8822 -91.4018 30.8217 -7.70762 -7.65222 1.30137 -8.85299 -18.1721 -18.1602 -1.05037 1.53344 -80.8017 -50.349 92.6107 -39.0924 -19.8471 -16.0924 3.22332 70.6501 -3.86806 -3.50093 -0.0101832 -11.9592 10.986 -0.571509 -1.38677 -14.6543 -0.743737 4.58693 
-222.514 94.8735 198.372 94.4179 45.9047 89.5651 -177.691 -1.12756 89.4042 -7.80287 9.35946 1.58652 58.7751 3.16188 8.99952 36.5614 3.2262 4.07694 174.342 3.83073 93.0765 -17.4186 1.33308 -1.16203 68.1613 0.148558 13.6932 26.3315 3.14033 1.28543 -0.187925 7.14973 -90.3781 12.5723 -0.5534 -0.690982 0.901277 -0.58327 -0.665961 -21.6328 -0.320167 -0.82535 -1.62014 -0.320153 -0.825348 96.2109 -49.6401 -91.2881 30.8954 -7.5932 -7.63098 1.27825 -9.00142 -18.1422 -17.9082 -1.04417 1.58909 -80.8631 -50.4037 92.5214 -39.1369 -20.0364 -16.0839 2.99941 69.5241 -3.76341 -4.79273 0.0531315 -11.3536 11.5498 -0.513965 -0.768301 -15.5841 -0.75799 3.67133 
-222.465 94.878 198.35 94.3854 45.6406 89.6659 -177.561 -1.14098 89.5038 -7.7685 9.0314 1.53036 58.8531 3.18092 8.96347 36.5507 3.21887 3.9397 174.444 3.77017 93.1771 -17.2911 1.22391 -1.2066 68.1076 0.174333 13.7936 26.4204 3.01582 1.37701 -0.148027 7.13596 -90.3754 12.6 -0.472927 -0.694755 0.928989 -0.503034 -0.673273 -21.6049 -0.242281 -0.804766 -1.59226 -0.242268 -0.804768 96.2533 -49.598 -91.2268 30.9671 -7.37523 -7.59564 1.20145 -9.50073 -17.971 -17.9605 -1.03043 1.47967 -81.0286 -50.1569 92.2569 -39.3864 -20.1841 -15.9501 2.84153 67.0113 -3.80662 -6.7822 0.131434 -10.1324 11.2913 -0.468728 -1.15207 -15.5741 -0.650905 3.90083 
